<svg xmlns="http://www.w3.org/2000/svg" viewBox="0 0 832.39 76.71"><defs><style>.cls-1{fill:#fc3d39;}.cls-1,.cls-2,.cls-3,.cls-4,.cls-5,.cls-6,.cls-7,.cls-8{stroke:#fff;stroke-width:2px;}.cls-2{fill:#fd9426;}.cls-3{fill:#fecb2f;}.cls-4{fill:#53d769;}.cls-5{fill:#157efb;}.cls-6{fill:#595ad3;}.cls-7{fill:#fc3159;}.cls-8{fill:#60c9f8;}</style></defs><title>ColorsWithBorder</title><g id="Laag_2" data-name="Laag 2"><g id="Laag_1-2" data-name="Laag 1"><path class="cls-1" d="M73.19,12.07q0,26.34,0,52.7c0,6.81-4.08,10.92-10.86,10.93q-25.23,0-50.46,0C5.1,75.68,1,71.58,1,64.78Q1,51.53,1,38.29T1,12.07c0-7,4-11,11-11Q37.1,1,62.2,1C69.14,1,73.19,5.09,73.19,12.07Z"/><path class="cls-2" d="M181.5,12.07q0,26.34,0,52.7c0,6.81-4.08,10.92-10.86,10.93q-25.23,0-50.46,0c-6.77,0-10.85-4.12-10.86-10.92q0-13.25,0-26.48t0-26.23c0-7,4-11,11-11q25.11,0,50.21,0C177.45,1,181.5,5.09,181.5,12.07Z"/><path class="cls-3" d="M289.81,12.07q0,26.34,0,52.7c0,6.81-4.08,10.92-10.86,10.93q-25.23,0-50.46,0c-6.77,0-10.85-4.12-10.86-10.92q0-13.25,0-26.48t0-26.23c0-7,4-11,11-11q25.11,0,50.21,0C285.76,1,289.81,5.09,289.81,12.07Z"/><path class="cls-4" d="M398.13,12.07q0,26.34,0,52.7c0,6.81-4.08,10.92-10.86,10.93q-25.23,0-50.46,0c-6.77,0-10.85-4.12-10.86-10.92q0-13.25,0-26.48t0-26.23c0-7,4-11,11-11Q362,1,387.14,1C394.08,1,398.13,5.09,398.13,12.07Z"/><path class="cls-5" d="M614.75,12.07q0,26.34,0,52.7c0,6.81-4.08,10.92-10.86,10.93q-25.23,0-50.46,0c-6.77,0-10.85-4.12-10.86-10.92q0-13.25,0-26.48t0-26.23c0-7,4-11,11-11q25.11,0,50.21,0C610.7,1,614.75,5.09,614.75,12.07Z"/><path class="cls-6" d="M723.06,12.07q0,26.34,0,52.7c0,6.81-4.08,10.92-10.86,10.93q-25.23,0-50.46,0c-6.77,0-10.85-4.12-10.86-10.92q0-13.25,0-26.48t0-26.23c0-7,4-11,11-11Q687,1,712.07,1C719,1,723.06,5.09,723.06,12.07Z"/><path class="cls-7" d="M831.37,12.07q0,26.34,0,52.7c0,6.81-4.08,10.92-10.86,10.93q-25.23,0-50.46,0c-6.77,0-10.85-4.12-10.86-10.92q0-13.25,0-26.48t0-26.23c0-7,4-11,11-11q25.11,0,50.21,0C827.32,1,831.37,5.09,831.37,12.07Z"/><path class="cls-8" d="M506.44,12.07q0,26.34,0,52.7c0,6.81-4.08,10.92-10.86,10.93q-25.23,0-50.46,0c-6.77,0-10.85-4.12-10.86-10.92q0-13.25,0-26.48t0-26.23c0-7,4-11,11-11q25.11,0,50.21,0C502.39,1,506.44,5.09,506.44,12.07Z"/></g></g></svg>