<svg xmlns="http://www.w3.org/2000/svg" viewBox="0 0 838.39 82.71"><defs><style>.cls-1{fill:#fc3d39;}.cls-1,.cls-2,.cls-3,.cls-4,.cls-5,.cls-6,.cls-7,.cls-8{stroke:#fff;stroke-width:8px;}.cls-2{fill:#fd9426;}.cls-3{fill:#fecb2f;}.cls-4{fill:#53d769;}.cls-5{fill:#157efb;}.cls-6{fill:#595ad3;}.cls-7{fill:#fc3159;}.cls-8{fill:#60c9f8;}</style></defs><title>Colors_2</title><g id="Laag_2" data-name="Laag 2"><g id="Laag_1-2" data-name="Laag 1"><path class="cls-1" d="M76.19,15.07q0,26.34,0,52.7c0,6.81-4.08,10.92-10.86,10.93q-25.23,0-50.46,0C8.1,78.68,4,74.58,4,67.78Q4,54.53,4,41.29T4,15.07c0-7,4-11,11-11Q40.1,4,65.2,4C72.14,4,76.19,8.09,76.19,15.07Z"/><path class="cls-2" d="M184.5,15.07q0,26.34,0,52.7c0,6.81-4.08,10.92-10.86,10.93q-25.23,0-50.46,0c-6.77,0-10.85-4.12-10.86-10.92q0-13.25,0-26.48t0-26.23c0-7,4-11,11-11q25.11,0,50.21,0C180.45,4,184.5,8.09,184.5,15.07Z"/><path class="cls-3" d="M292.81,15.07q0,26.34,0,52.7c0,6.81-4.08,10.92-10.86,10.93q-25.23,0-50.46,0c-6.77,0-10.85-4.12-10.86-10.92q0-13.25,0-26.48t0-26.23c0-7,4-11,11-11q25.11,0,50.21,0C288.76,4,292.81,8.09,292.81,15.07Z"/><path class="cls-4" d="M401.13,15.07q0,26.34,0,52.7c0,6.81-4.08,10.92-10.86,10.93q-25.23,0-50.46,0c-6.77,0-10.85-4.12-10.86-10.92q0-13.25,0-26.48t0-26.23c0-7,4-11,11-11Q365,4,390.14,4C397.08,4,401.13,8.09,401.13,15.07Z"/><path class="cls-5" d="M617.75,15.07q0,26.34,0,52.7c0,6.81-4.08,10.92-10.86,10.93q-25.23,0-50.46,0c-6.77,0-10.85-4.12-10.86-10.92q0-13.25,0-26.48t0-26.23c0-7,4-11,11-11q25.11,0,50.21,0C613.7,4,617.75,8.09,617.75,15.07Z"/><path class="cls-6" d="M726.06,15.07q0,26.34,0,52.7c0,6.81-4.08,10.92-10.86,10.93q-25.23,0-50.46,0c-6.77,0-10.85-4.12-10.86-10.92q0-13.25,0-26.48t0-26.23c0-7,4-11,11-11Q690,4,715.07,4C722,4,726.06,8.09,726.06,15.07Z"/><path class="cls-7" d="M834.37,15.07q0,26.34,0,52.7c0,6.81-4.08,10.92-10.86,10.93q-25.23,0-50.46,0c-6.77,0-10.85-4.12-10.86-10.92q0-13.25,0-26.48t0-26.23c0-7,4-11,11-11q25.11,0,50.21,0C830.32,4,834.37,8.09,834.37,15.07Z"/><path class="cls-8" d="M509.44,15.07q0,26.34,0,52.7c0,6.81-4.08,10.92-10.86,10.93q-25.23,0-50.46,0c-6.77,0-10.85-4.12-10.86-10.92q0-13.25,0-26.48t0-26.23c0-7,4-11,11-11q25.11,0,50.21,0C505.39,4,509.44,8.09,509.44,15.07Z"/></g></g></svg>