<svg xmlns="http://www.w3.org/2000/svg" viewBox="0 0 830.39 74.71"><defs><style>.cls-1{fill:#fc3d39;}.cls-2{fill:#fd9426;}.cls-3{fill:#fecb2f;}.cls-4{fill:#53d769;}.cls-5{fill:#157efb;}.cls-6{fill:#595ad3;}.cls-7{fill:#fc3159;}.cls-8{fill:#60c9f8;}</style></defs><title>ColorGuide</title><g id="Laag_2" data-name="Laag 2"><g id="Laag_1-2" data-name="Laag 1"><path class="cls-1" d="M72.19,11.07q0,26.34,0,52.7c0,6.81-4.08,10.92-10.86,10.93q-25.23,0-50.46,0C4.1,74.68,0,70.58,0,63.78Q0,50.53,0,37.29T0,11.07c0-7,4-11,11-11Q36.1,0,61.2,0C68.14,0,72.19,4.09,72.19,11.07Z"/><path class="cls-2" d="M180.5,11.07q0,26.34,0,52.7c0,6.81-4.08,10.92-10.86,10.93q-25.23,0-50.46,0c-6.77,0-10.85-4.12-10.86-10.92q0-13.25,0-26.48t0-26.23c0-7,4-11,11-11q25.11,0,50.21,0C176.45,0,180.5,4.09,180.5,11.07Z"/><path class="cls-3" d="M288.81,11.07q0,26.34,0,52.7c0,6.81-4.08,10.92-10.86,10.93q-25.23,0-50.46,0c-6.77,0-10.85-4.12-10.86-10.92q0-13.25,0-26.48t0-26.23c0-7,4-11,11-11q25.11,0,50.21,0C284.76,0,288.81,4.09,288.81,11.07Z"/><path class="cls-4" d="M397.13,11.07q0,26.34,0,52.7c0,6.81-4.08,10.92-10.86,10.93q-25.23,0-50.46,0c-6.77,0-10.85-4.12-10.86-10.92q0-13.25,0-26.48t0-26.23c0-7,4-11,11-11Q361,0,386.14,0C393.08,0,397.13,4.09,397.13,11.07Z"/><path class="cls-5" d="M613.75,11.07q0,26.34,0,52.7c0,6.81-4.08,10.92-10.86,10.93q-25.23,0-50.46,0c-6.77,0-10.85-4.12-10.86-10.92q0-13.25,0-26.48t0-26.23c0-7,4-11,11-11q25.11,0,50.21,0C609.7,0,613.75,4.09,613.75,11.07Z"/><path class="cls-6" d="M722.06,11.07q0,26.34,0,52.7c0,6.81-4.08,10.92-10.86,10.93q-25.23,0-50.46,0c-6.77,0-10.85-4.12-10.86-10.92q0-13.25,0-26.48t0-26.23c0-7,4-11,11-11Q686,0,711.07,0C718,0,722.06,4.09,722.06,11.07Z"/><path class="cls-7" d="M830.37,11.07q0,26.34,0,52.7c0,6.81-4.08,10.92-10.86,10.93q-25.23,0-50.46,0c-6.77,0-10.85-4.12-10.86-10.92q0-13.25,0-26.48t0-26.23c0-7,4-11,11-11q25.11,0,50.21,0C826.32,0,830.37,4.09,830.37,11.07Z"/><path class="cls-8" d="M505.44,11.07q0,26.34,0,52.7c0,6.81-4.08,10.92-10.86,10.93q-25.23,0-50.46,0c-6.77,0-10.85-4.12-10.86-10.92q0-13.25,0-26.48t0-26.23c0-7,4-11,11-11q25.11,0,50.21,0C501.39,0,505.44,4.09,505.44,11.07Z"/></g></g></svg>