<svg id="Laag_1" data-name="Laag 1" xmlns="http://www.w3.org/2000/svg" viewBox="0 0 181.84 59.92"><defs><style>.cls-1{fill:#fff;}.cls-2{fill:none;}</style></defs><title>Logo</title><path class="cls-1" d="M15.84,31.19V42H6.19V6h9.65V18.47L30.31,5.17l7.47,5.41L25.54,22,40.11,42H27.87L18.65,28.54Z" transform="translate(-6.19 -4.58)"/><path class="cls-1" d="M52.94,26.9V42H43.29V16.35h4.82l2.33,3.13a21.73,21.73,0,0,1,4.24-2.23,11.92,11.92,0,0,1,4.4-1L61,24a12.79,12.79,0,0,0-4.19.79A13.73,13.73,0,0,0,52.94,26.9Z" transform="translate(-6.19 -4.58)"/><path class="cls-1" d="M89.85,36.49A12.13,12.13,0,0,1,84.55,41,18,18,0,0,1,77,42.58q-6.47,0-10.41-3.47T62.64,29a13.47,13.47,0,0,1,1.93-7.29A12.54,12.54,0,0,1,69.82,17a16.63,16.63,0,0,1,7.39-1.62A17.2,17.2,0,0,1,84.79,17a11.86,11.86,0,0,1,5.14,4.72,14.61,14.61,0,0,1,1.86,7.58A13.08,13.08,0,0,1,89.85,36.49ZM80.6,33.36a6,6,0,0,0,1.22-4.08,7.39,7.39,0,0,0-1.19-4.35,3.83,3.83,0,0,0-3.31-1.7,4.22,4.22,0,0,0-3.47,1.54A6.55,6.55,0,0,0,72.6,29a6.77,6.77,0,0,0,1.17,4.19,3.94,3.94,0,0,0,3.34,1.54A4.42,4.42,0,0,0,80.6,33.36Z" transform="translate(-6.19 -4.58)"/><path class="cls-1" d="M121.12,36.49a12.13,12.13,0,0,1-5.3,4.56,18,18,0,0,1-7.55,1.54q-6.47,0-10.41-3.47T93.91,29a13.48,13.48,0,0,1,1.93-7.29A12.55,12.55,0,0,1,101.09,17a16.63,16.63,0,0,1,7.39-1.62A17.2,17.2,0,0,1,116.06,17a11.86,11.86,0,0,1,5.14,4.72,14.61,14.61,0,0,1,1.85,7.58A13.08,13.08,0,0,1,121.12,36.49Zm-9.25-3.13a6,6,0,0,0,1.22-4.08,7.39,7.39,0,0,0-1.19-4.35,3.83,3.83,0,0,0-3.31-1.7,4.22,4.22,0,0,0-3.47,1.54A6.55,6.55,0,0,0,103.87,29,6.76,6.76,0,0,0,105,33.2a3.94,3.94,0,0,0,3.34,1.54A4.42,4.42,0,0,0,111.87,33.36Z" transform="translate(-6.19 -4.58)"/><path class="cls-1" d="M136.94,33.73V42H127.3V5.17l9.65-.58V23.66l9.59-8.11,5.78,6.63-6.84,5.14L154.17,42H143.78l-5.09-9.59Z" transform="translate(-6.19 -4.58)"/><path class="cls-1" d="M159.2,10.41a2.13,2.13,0,0,1-1.62-.64A2.2,2.2,0,0,1,157,8.19a2.2,2.2,0,0,1,.61-1.59A2.13,2.13,0,0,1,159.2,6a2.25,2.25,0,0,1,1.62.64,2.11,2.11,0,0,1,.66,1.59,2.11,2.11,0,0,1-.66,1.59A2.25,2.25,0,0,1,159.2,10.41Zm1.48,5.88V42h-2.92V16.29Z" transform="translate(-6.19 -4.58)"/><path class="cls-1" d="M188,29.23H169.27a13.31,13.31,0,0,0,2.33,8q2.28,3,6.94,3a14.65,14.65,0,0,0,4.13-.53,22.49,22.49,0,0,0,3.71-1.48l1.06,2.17a16.54,16.54,0,0,1-4.05,1.62,17.69,17.69,0,0,1-4.53.61q-6.31,0-9.43-3.68T166.3,29a15.15,15.15,0,0,1,2.94-9.7q2.94-3.71,8.45-3.71a8.85,8.85,0,0,1,7.63,3.76Q188,23.13,188,29.23Zm-18.66-2.07H185a13.14,13.14,0,0,0-2.17-6.62A6.24,6.24,0,0,0,177.43,18a6.84,6.84,0,0,0-5.64,2.54A12,12,0,0,0,169.38,27.16Z" transform="translate(-6.19 -4.58)"/><path class="cls-2" d="M108,46.5a15.5,15.5,0,0,1-26.46,11A14.93,14.93,0,0,1,77,46.5a15.5,15.5,0,0,1,26.46-11A14.93,14.93,0,0,1,108,46.5Z" transform="translate(-6.19 -4.58)"/><path class="cls-1" d="M92.5,64.5A18,18,0,0,1,74.73,49.37l4.94-.75a13,13,0,0,0,22,7.07,12.3,12.3,0,0,0,3.64-7.07l4.94.75A18,18,0,0,1,92.5,64.5Z" transform="translate(-6.19 -4.58)"/></svg>